<svg width="80" height="40" viewBox="0 0 80 40" fill="none" xmlns="http://www.w3.org/2000/svg">
<g clip-path="url(#clip0_3340_1377)">
<path d="M13.125 2.00013C31.6008 11.1114 31.6008 28.8886 13.125 37.9999C40.8388 37.9999 49.5121 38.2226 58.75 20C49.5121 1.77741 40.8388 2.00013 13.125 2.00013Z" stroke="black" stroke-width="3.54331" stroke-linecap="round" stroke-linejoin="bevel"/>
<path d="M68 20H79" stroke="black" stroke-width="3.54331" stroke-linecap="round"/>
<path d="M1 10L23 10" stroke="black" stroke-width="3.54331" stroke-linecap="round"/>
<path d="M1 30.0001L23 30" stroke="black" stroke-width="3.54331" stroke-linecap="round"/>
<path d="M63.3125 24.4999C65.8323 24.4999 67.875 22.4852 67.875 20C67.875 17.5147 65.8323 15.5 63.3125 15.5C60.7927 15.5 58.75 17.5147 58.75 20C58.75 22.4852 60.7927 24.4999 63.3125 24.4999Z" stroke="black" stroke-width="3.5" stroke-linecap="round"/>
</g>
<defs>
<clipPath id="clip0_3340_1377">
<rect width="80" height="40" fill="white"/>
</clipPath>
</defs>
</svg>
