<svg width="100" height="100" viewBox="0 0 100 100" fill="none" xmlns="http://www.w3.org/2000/svg">
<g clip-path="url(#clip0_3340_1379)">
<path d="M49.9998 85C66.9365 85 80.6665 70.1358 80.6665 51.8C80.6665 33.4641 66.9365 18.6 49.9998 18.6C33.0631 18.6 19.3331 33.4641 19.3331 51.8C19.3331 70.1358 33.0631 85 49.9998 85Z" stroke="black" stroke-width="3.5" stroke-linecap="square" stroke-linejoin="round"/>
<path d="M14 30.225L21.6667 24L23.5833 35.4125L14 30.225Z" fill="black"/>
<path d="M16.75 27.3L11 19" stroke="black" stroke-width="3.5" stroke-linecap="square" stroke-linejoin="round"/>
<path d="M21 19.225L28.6667 13L30.5833 24.4125L21 19.225Z" fill="black"/>
<path d="M24.75 17.3L19 9" stroke="black" stroke-width="3.5" stroke-linecap="square" stroke-linejoin="round"/>
<path d="M99.5 50H73L69.1667 40L61.5 60L53.8333 40L46.1667 60L38.5 40L30.8333 60L27 50H0.5" stroke="black" stroke-width="3.5" stroke-linecap="round" stroke-linejoin="bevel"/>
</g>
<defs>
<clipPath id="clip0_3340_1379">
<rect width="100" height="100" fill="white"/>
</clipPath>
</defs>
</svg>
