<svg width="80" height="100" viewBox="0 0 80 100" fill="none" xmlns="http://www.w3.org/2000/svg">
<g clip-path="url(#clip0_3340_1384)">
<path d="M1 10.0706L16.9436 10V21.4891C35.6192 21.4891 35.6192 32.8026 16.9436 32.837C35.6192 32.8541 35.5528 44.2557 16.9436 44.2554C35.6855 44.2209 35.6855 55.6737 16.9436 55.6739C35.5528 55.6398 35.6192 67.0753 16.9436 67.0924C35.6192 67.0753 35.6192 78.4765 16.9436 78.5109V89.9294L1 90" stroke="black" stroke-width="3.544" stroke-linecap="round" stroke-linejoin="round"/>
<path d="M39.5002 22.5V81.25" stroke="black" stroke-width="7" stroke-linecap="square" stroke-linejoin="bevel"/>
<path d="M80 10H60.5726V21.4993C43.8684 21.4993 43.8684 32.8228 60.5726 32.8571C43.8684 32.8743 43.9278 44.2859 60.5726 44.2857C43.8091 44.2511 43.8091 55.7141 60.5726 55.7143C43.9278 55.6802 43.8684 67.1257 60.5726 67.1429C43.8684 67.1257 43.8684 78.5371 60.5726 78.5714V90H80" stroke="black" stroke-width="3.544" stroke-linecap="round" stroke-linejoin="round"/>
<path d="M27.45 13.875C29.3554 13.875 30.9 12.5598 30.9 10.9375C30.9 9.31516 29.3554 8 27.45 8C25.5446 8 24 9.31516 24 10.9375C24 12.5598 25.5446 13.875 27.45 13.875Z" fill="black"/>
<path d="M51.45 13.875C53.3554 13.875 54.9 12.5598 54.9 10.9375C54.9 9.31516 53.3554 8 51.45 8C49.5446 8 48 9.31516 48 10.9375C48 12.5598 49.5446 13.875 51.45 13.875Z" fill="black"/>
</g>
<defs>
<clipPath id="clip0_3340_1384">
<rect width="80" height="100" fill="white"/>
</clipPath>
</defs>
</svg>
