<svg width="100" height="40" viewBox="0 0 100 40" fill="none" xmlns="http://www.w3.org/2000/svg">
<g clip-path="url(#clip0_3331_1355)">
<path d="M68.8082 20C68.8082 29.9411 60.3875 38 50.0001 38C39.6127 38 31.192 29.9411 31.192 20C31.192 10.0589 39.6127 2 50.0001 2C60.3875 2 68.8082 10.0589 68.8082 20Z" stroke="black" stroke-width="3.5" stroke-linecap="square" stroke-linejoin="round"/>
<path d="M69.303 20L98.9999 20" stroke="black" stroke-width="3.5" stroke-linecap="round"/>
<path d="M30.697 20L1 20" stroke="black" stroke-width="3.5" stroke-linecap="round"/>
<path d="M59.0001 20C59.0001 17.4031 56.9854 15.298 54.5001 15.298C52.0148 15.298 50.0001 17.4031 50.0001 20C50.0001 22.5968 47.9854 24.702 45.5001 24.702C43.0148 24.702 41.0001 22.5968 41.0001 20" stroke="black" stroke-width="3.5" stroke-linecap="round"/>
</g>
<defs>
<clipPath id="clip0_3331_1355">
<rect width="100" height="40" fill="white"/>
</clipPath>
</defs>
</svg>
